<svg xmlns="http://www.w3.org/2000/svg" width="130" height="162" fill="none"><path fill="#fff" d="M115.2 152.2H19.4V56.3c0-26.4 21.5-47.9 47.9-47.9s47.9 21.5 47.9 47.9v95.9Zm-94.8-1h93.8V56.3c0-25.9-21-46.9-46.9-46.9s-46.9 21-46.9 46.9v94.9Z"/><path fill="#fff" d="M20.7 150.9s-.9-.1-.5-.7 2.3-2.7 5.1-5.6c2.8-2.9 3.8-6 6.7-9.3 2.9-3.3 6.6-5.3 10.3-11.1 3.7-5.8 4.2-11.5 8.3-17 4.1-5.5 5-5.9 6.8-9.7 1.8-3.7 4.3-5.5 8-4.5s6.8 4.7 11.3 7c4.5 2.3 8.8 3.8 10.5 6.5 0 0-.9-2.4-4-4-3.1-1.5-6.7-3.2-10.8-6.4-4.1-3.2-10.7-7.2-14.7-.1 0 0 .5-.6-.4-2.5s-3.1-10.6-3.5-13c-.4-2.4 0-3-.9-9s-1.8-6.5-2.6-9.9c-.8-3.4 1.5-6 3.4-6.9 1.9-.9 3.9-1 5.6-.5 0 0-.4 3.7.2 5.4.6 1.7 2 2.7 2 2.7s-4.5 1.2-6.7 3.2c0 0 2.3-1.3 4.5-1.7 2.1-.4 2.9-.9 2.9-.9s1.4 1.5 8.1 4.5c6.7 3.1 11.3 2.9 11.3 2.9s-4-.9-10.3-3.7C64.9 63.9 60.5 62 60 59s.6-6.7 2.4-12.4c1.8-5.7 2.7-8.2 2.7-9.3l-4 10.5s-1.7-2.6-1.7-3.6.8-.9.8-2.3c0-1.3-.8-7.8 4.6-10.5 0 0-.2.9.3 4.1.6 3.2-.2 6.4 0 9.5.2 3.1 1.1 8.7 1.3 10.2.2 1.5 1.8 2.6 3.3 2.6 0 0-2.2-.9-2.6-2.1-.4-1.2-.2-3.1-.7-6.4-.5-3.2-.7-5.5-.5-9.2.2-3.7-1.1-8-1.1-10.9 0-2.9 2-5.3 3.2-6.4 1.2-1.1 1.8-2.4 1.8-2.4s.7 2.7.7 5.1c0 2.4-2 2.2-2 4.2s2.8 11.4 4.3 17.1c1.5 5.8 1 8.1-3.3 11.2 0 0 2.2 1.7 7.3 1.7 0 0-3.7-.3-6.6-1.7 0 0 1.8-1.5 2.3-2.2 0 0 .8 2.8 4.8 3.3 4 .6 6.1 1.2 7.4 3.4 1.3 2.2.2 4.1-1 6.9-1.2 2.8-3.7 9.7-4.2 11-.5 1.3-.3 3.5-1.4 6.9-1.1 3.4-1.1 6.7.2 8.8 1.3 2.1 5.9 4.5 7.8 7 1.8 2.6 2.9 5.3 2.2 10.3-.7 5-4.2 9.1-8.2 10.3-4 1.2-5.9-.2-7.1-.4-1.2-.1-2.3.7-2.3.7s.4-3.8-.7-4.2c0 0 .3.3.2 3-.1 2.7.4 4.5.7 5.8.3 1.3-.4 4.1.2 7.3.6 3.2 1.1 5 1.1 7.8s-.4 3.9-1.6 4c-1.2.1-1.7-.6-2.3-.6-.6.1-1 .1-2.1-1-1.2-1.1-4-2.1-3.9-4.2.1-2 1.2-5.5 1.9-8.6.7-3.1.2-4.5-1-5.3-1.3-.8-2.3-.2-3.9-1.6-1.7-1.4-2.3-2.4-2.8-3.6-.9-2.1-1.3-1.8-1.8-2.6-.5-.7 2.1-5.2 3.7-7.3 1.6-2.1 4.2-4.6 4.2-4.6s2.2-.3 5.5 2.3c3.3 2.6 3.4 3 4.5 6.7 0 0 .5-2.3-1.6-5.4-2.1-3.1-7.8-4.3-7.8-4.3s1.1-.8 1.5-3.4c0 0-.9 2.8-4.2 5.5-3.2 2.7-4.4 5.1-5.3 7.5-.9 2.4-3.3 5.9-5.4 8.4-2.1 2.6-5.3 5.6-6.7 7.1-1.4 1.5-.9 2.9-1.2 4.6-.4 1.7-1.8 4.1-2.8 4.9-1 .8-1.8.6-3.3 2.6-1.5 2-2.3 3.4-4 5.2-1.8 1.8-4.7 1.8-5.1 1.8-.4 0 .1.8-1.3.4l-1.4-.4s-.4.7-1.2-.1c-.5-.6-2.1-.8-2.1-.8Z"/><path fill="#fff" d="M70.2 34.6c0-.1-.1-.3-.2-.4-.3-.6-1.1-2.8-1.1-4.5 0-1.5 1.7-2.1 1.8-3.5.2-1.4-.2-3.7-.6-5.7-.4-2-.1-2.6.5-4.4.6-1.8.6-2.2 1.3-2 .6.2.4 2.1.6 2.2 0 0 .7-1.1 1.1-1.1h.5s0 1.3-.4 2.5.1 1.2-.4 4-1.5 7.8-1.9 8.3c-.3.4-1.7 2.1-1.1 4.4 0 0 0-2.7.7-2.9 0 0 1 .1 2.4 1.2 1.4 1.1 2 3.2 2.2 5.1.2 1.9-.4 3.5 0 4.7.3 1.2.4 1.9 0 3.1-.4 1.3-1.2 2.6-1.4 2.6-.2 0-.8-2.8-2.1-7.3-1.2-4.2-1.4-4.4-1.9-6.3Z"/></svg>